HIERARCHY
ROOT Hips
{
    OFFSET 0.000000 0.000000 0.000000
    CHANNELS 6 Xposition Yposition Zposition Zrotation Xrotation Yrotation
    JOINT Spine
    {
        OFFSET -0.000000 14.517291 0.000000
        CHANNELS 3 Zrotation Xrotation Yrotation
        JOINT Spine1
        {
            OFFSET -0.000000 37.558300 0.000000
            CHANNELS 3 Zrotation Xrotation Yrotation
            JOINT Neck
            {
                OFFSET -0.000000 37.404057 3.400369
                CHANNELS 3 Zrotation Xrotation Yrotation
                JOINT Head
                {
                    OFFSET -0.000000 24.785618 -3.540803
                    CHANNELS 3 Zrotation Xrotation Yrotation
                    End Site
                    {
                        OFFSET -0.000000 35.408028 0.000000
                    }
                }
            }
            JOINT LeftShoulder
            {
                OFFSET 6.992933 33.973492 -0.192664
                CHANNELS 3 Zrotation Xrotation Yrotation
                JOINT LeftArm
                {
                    OFFSET 21.527611 0.000000 0.000000
                    CHANNELS 3 Zrotation Xrotation Yrotation
                    JOINT LeftForeArm
                    {
                        OFFSET 56.353916 0.000000 0.000000
                        CHANNELS 3 Zrotation Xrotation Yrotation
                        JOINT LeftHand
                        {
                            OFFSET 47.774071 0.000000 0.000000
                            CHANNELS 3 Zrotation Xrotation Yrotation
                            End Site
                            {
                                OFFSET 26.556021 0.000000 0.000000
                            }
                        }
                    }
                }
            }
            JOINT RightShoulder
            {
                OFFSET -7.065357 33.973492 -0.192664
                CHANNELS 3 Zrotation Xrotation Yrotation
                JOINT RightArm
                {
                    OFFSET -21.527611 0.000000 0.000000
                    CHANNELS 3 Zrotation Xrotation Yrotation
                    JOINT RightForeArm
                    {
                        OFFSET -56.353916 0.000000 0.000000
                        CHANNELS 3 Zrotation Xrotation Yrotation
                        JOINT RightHand
                        {
                            OFFSET -47.774071 0.000000 0.000000
                            CHANNELS 3 Zrotation Xrotation Yrotation
                            End Site
                            {
                                OFFSET -26.556021 0.000000 0.000000
                            }
                        }
                    }
                }
            }
        }
    }
    JOINT LeftUpLeg
    {
        OFFSET 17.704014 0.000000 0.000000
        CHANNELS 3 Zrotation Xrotation Yrotation
        JOINT LeftLeg
        {
            OFFSET -0.000000 -81.181816 0.000000
            CHANNELS 3 Zrotation Xrotation Yrotation
            JOINT LeftFoot
            {
                OFFSET -0.000000 -62.821102 0.000000
                CHANNELS 3 Zrotation Xrotation Yrotation
                JOINT LeftToeBase
                {
                    OFFSET -0.000000 -11.507608 26.556021
                    CHANNELS 3 Zrotation Xrotation Yrotation
                    End Site
                    {
                        OFFSET -0.000000 0.000000 7.081605
                    }
                }
            }
        }
    }
    JOINT RightUpLeg
    {
        OFFSET -17.704014 0.000000 0.000000
        CHANNELS 3 Zrotation Xrotation Yrotation
        JOINT RightLeg
        {
            OFFSET -0.000000 -81.181816 0.000000
            CHANNELS 3 Zrotation Xrotation Yrotation
            JOINT RightFoot
            {
                OFFSET -0.000000 -62.821102 0.000000
                CHANNELS 3 Zrotation Xrotation Yrotation
                JOINT RightToeBase
                {
                    OFFSET -0.000000 -11.507608 26.556021
                    CHANNELS 3 Zrotation Xrotation Yrotation
                    End Site
                    {
                        OFFSET -0.000000 0.000000 7.081605
                    }
                }
            }
        }
    }
}
MOTION
Frames:    12
Frame Time:    0.008333
22.888153    153.827805    -104.563019    0.615372    -6.295382    36.984348    -2.908524    0.659028    -6.291150    -3.294986    0.936702    -2.078019    4.629685    2.748244    -14.093226    11.162964    5.745387    -14.250460    5.849241    9.375862    -18.207850    -28.296375    21.602394    -51.100941    -3.376391    -11.098242    -106.002007    6.767946    -15.987781    -9.284096    -8.807490    0.235067    -8.954925    21.135689    -16.214478    28.639797    -26.819229    -26.212784    51.425720    5.716240    -12.031550    35.712357    15.707358    0.254034    2.138313    -15.532569    37.830750    -16.243090    8.844081    -30.379930    45.582924    0.000000    0.000000    0.000000    -19.168972    -16.402355    -11.372659    12.538425    31.718132    -13.302364    6.331049    0.233247    -17.348133    0.000000    0.000000    0.000000    
22.817207    153.834351    -104.555038    0.638471    -6.311759    36.995789    -2.918499    0.660002    -6.246536    -3.286493    0.944896    -2.063003    4.542387    2.742203    -14.105525    11.242150    5.792673    -14.250260    5.805036    9.373652    -18.160284    -28.311266    21.594149    -51.116741    -3.411976    -11.030712    -106.022812    6.846354    -15.972559    -9.246123    -8.761564    0.274640    -8.828354    21.455378    -16.596079    29.317274    -26.452166    -26.214163    51.661804    6.018180    -12.047980    35.833927    15.713539    0.278782    2.110454    -15.508028    37.788246    -16.259155    8.812982    -30.372108    45.583241    0.000000    0.000000    0.000000    -19.154087    -16.388397    -11.388304    12.524160    31.729149    -13.288984    6.305593    0.231720    -17.331324    0.000000    0.000000    0.000000    
22.744923    153.841858    -104.549919    0.660675    -6.322896    37.011211    -2.924753    0.657935    -6.207974    -3.282115    0.953155    -2.049940    4.444060    2.720349    -14.117778    11.323428    5.863682    -14.251505    5.754468    9.355551    -18.115450    -28.280802    21.678072    -51.129410    -3.397202    -11.104009    -106.061157    6.841506    -16.027924    -9.238838    -8.701014    0.296143    -8.703838    21.675228    -16.798279    29.961174    -26.294336    -26.102348    51.689125    5.887722    -12.033651    35.940670    15.718369    0.291180    2.086601    -15.484154    37.758331    -16.273849    8.783847    -30.350893    45.572521    0.000000    0.000000    0.000000    -19.144285    -16.375216    -11.402619    12.523344    31.728916    -13.307856    6.302736    0.220362    -17.319288    0.000000    0.000000    0.000000    
22.673296    153.849396    -104.543304    0.673893    -6.343403    37.028610    -3.332686    0.861142    -5.687336    -2.788672    0.762427    -1.887966    4.858905    2.613956    -14.363327    10.878846    5.803886    -14.598797    6.036534    9.482029    -18.769144    -28.625444    21.500860    -51.411671    -3.437618    -10.882957    -105.857887    6.865223    -15.851407    -9.287008    -8.400435    0.268551    -9.273812    21.359972    -16.667425    30.497221    -26.316158    -26.108433    51.302948    5.905125    -12.115430    36.273235    15.734684    0.302900    2.063971    -15.456268    37.734165    -16.276194    8.753970    -30.332407    45.556526    0.000000    0.000000    0.000000    -19.121025    -16.362413    -11.420466    12.511664    31.739672    -13.290974    6.284213    0.222931    -17.315187    0.000000    0.000000    0.000000    
22.600872    153.857758    -104.533234    0.688558    -6.365308    37.048218    -3.317989    0.857622    -5.646049    -2.814205    0.783058    -1.873454    4.847513    2.579156    -14.357072    10.874573    5.847547    -14.596881    6.022520    9.487093    -18.727339    -28.631630    21.505703    -51.437340    -3.526348    -10.876231    -105.940758    6.836386    -15.957134    -9.191563    -8.301641    0.298420    -9.161914    21.587381    -16.962536    31.146780    -26.123371    -25.923601    51.388618    5.802289    -12.016149    36.339573    15.756995    0.311985    2.000126    -15.463964    37.713547    -16.266119    8.717669    -30.328718    45.557621    0.000000    0.000000    0.000000    -19.099232    -16.341877    -11.422153    12.509935    31.740742    -13.276505    6.276647    0.216853    -17.318710    0.000000    0.000000    0.000000    
22.526047    153.867310    -104.528740    0.691806    -6.378030    37.062317    -3.317670    0.843953    -5.583926    -2.800356    0.806880    -1.852147    4.808422    2.534537    -14.379407    10.876839    5.887999    -14.620922    5.999103    9.468337    -18.724279    -28.643682    21.525770    -51.451126    -3.522696    -10.864304    -105.964165    6.833241    -15.943608    -9.210810    -8.233468    0.341026    -9.061793    21.819567    -17.165842    31.804247    -26.080864    -25.835745    51.345894    5.843538    -11.934104    36.461075    15.781348    0.310747    1.951524    -15.474203    37.678890    -16.244202    8.702346    -30.300459    45.569836    0.000000    0.000000    0.000000    -19.076876    -16.339699    -11.436946    12.514025    31.740074    -13.274129    6.267218    0.222601    -17.324142    0.000000    0.000000    0.000000    
22.455645    153.879700    -104.521111    0.699974    -6.397627    37.074852    -3.333700    0.843558    -5.526021    -2.743667    0.814321    -1.833069    4.721842    2.510435    -14.401941    10.908957    5.925733    -14.635355    5.932789    9.440877    -18.722536    -28.652102    21.551823    -51.429806    -3.531219    -10.825892    -106.006332    6.856205    -15.922276    -9.214746    -8.195460    0.371408    -8.932432    22.037550    -17.405878    32.389290    -25.928175    -25.697226    51.425083    5.794759    -11.847744    36.569359    15.803768    0.321817    1.906895    -15.473641    37.644768    -16.249563    8.692409    -30.275387    45.585167    0.000000    0.000000    0.000000    -19.049423    -16.328074    -11.457407    12.502211    31.741560    -13.266180    6.241502    0.231855    -17.308140    0.000000    0.000000    0.000000    
22.385120    153.890823    -104.514656    0.707379    -6.414632    37.084927    -3.600991    0.551449    -5.327772    -2.434227    1.212769    -1.758496    4.853061    2.741989    -14.488155    10.810368    5.538719    -14.703991    5.997041    9.438600    -19.160894    -28.730949    21.408852    -51.396221    -3.435227    -10.982785    -105.836716    6.735757    -15.935906    -9.313202    -8.074505    0.239802    -8.670456    21.908628    -17.441780    32.638252    -26.051645    -25.717546    51.120281    5.849015    -11.864872    36.771900    15.822304    0.333361    1.855852    -15.468717    37.608223    -16.240776    8.645227    -30.275631    45.582451    0.000000    0.000000    0.000000    -19.020472    -16.318359    -11.479117    12.482763    31.742250    -13.235346    6.237184    0.235236    -17.316429    0.000000    0.000000    0.000000    
22.316242    153.905182    -104.505707    0.714262    -6.434681    37.099598    -3.604441    0.553537    -5.274013    -2.404274    1.210027    -1.740945    4.802742    2.728510    -14.519779    10.818112    5.564023    -14.733106    5.970164    9.450823    -19.113146    -28.714867    21.430389    -51.461700    -3.432821    -10.977413    -105.828735    6.696694    -15.925020    -9.331666    -7.999431    0.256693    -8.538941    21.996185    -17.367186    33.203217    -26.261423    -25.802771    50.920525    5.809285    -11.919209    36.828239    15.845082    0.352677    1.817158    -15.466139    37.557472    -16.233288    8.630013    -30.252909    45.585773    0.000000    0.000000    0.000000    -18.990416    -16.298260    -11.500666    12.468881    31.732922    -13.211710    6.235800    0.238674    -17.315092    0.000000    0.000000    0.000000    
22.248285    153.919724    -104.493835    0.722311    -6.454147    37.116989    -3.606962    0.540226    -5.216702    -2.392931    1.223371    -1.721545    4.763709    2.736529    -14.543986    10.850640    5.562911    -14.750161    5.962437    9.441892    -19.126432    -28.716141    21.442648    -51.465721    -3.339420    -10.967925    -105.792221    6.775252    -15.806933    -9.451016    -7.905008    0.476440    -8.347521    22.218966    -17.707922    33.835464    -26.271515    -25.782047    50.832825    5.885627    -11.883365    36.976151    15.864321    0.376025    1.786563    -15.437380    37.505596    -16.266998    8.625939    -30.219236    45.595074    0.000000    0.000000    0.000000    -18.958010    -16.271072    -11.535823    12.445564    31.714569    -13.186997    6.206828    0.235758    -17.306236    0.000000    0.000000    0.000000    
22.180843    153.933960    -104.480865    0.735990    -6.475695    37.145340    -3.620276    0.545398    -5.164800    -2.359175    1.210923    -1.704942    4.711806    2.744502    -14.581086    10.871497    5.582323    -14.782138    5.938165    9.436887    -19.155470    -28.724600    21.517515    -51.461384    -3.301426    -11.052296    -105.803864    6.724749    -15.839472    -9.476135    -7.836208    0.578787    -8.272921    22.495476    -18.021694    34.541870    -26.089691    -25.571526    50.871681    5.771127    -11.765959    37.077549    15.883460    0.401661    1.767316    -15.403205    37.456635    -16.301088    8.595379    -30.199804    45.579460    0.000000    0.000000    0.000000    -18.932211    -16.232918    -11.568809    12.435688    31.690584    -13.192715    6.170068    0.241249    -17.284042    0.000000    0.000000    0.000000    
22.111467    153.948029    -104.469749    0.741735    -6.487298    37.163853    -3.637123    0.530026    -5.109538    -2.320807    1.219342    -1.686617    4.686356    2.737007    -14.603874    10.862894    5.586191    -14.804288    5.920455    9.438486    -19.157568    -28.706789    21.547516    -51.480644    -3.292594    -11.081037    -105.808632    6.626816    -15.850696    -9.509835    -7.786820    0.632303    -8.162637    22.768358    -18.337332    35.162506    -25.836391    -25.385557    51.017380    5.602642    -11.700668    37.155228    15.903502    0.418895    1.774674    -15.362228    37.408073    -16.337851    8.558398    -30.185953    45.563091    0.000000    0.000000    0.000000    -18.900078    -16.213112    -11.604163    12.405971    31.670746    -13.159435    6.155470    0.237215    -17.290039    0.000000    0.000000    0.000000    
